<svg xmlns="http://www.w3.org/2000/svg" xmlns:xlink="http://www.w3.org/1999/xlink" width="500" zoomAndPan="magnify" viewBox="0 0 375 374.999991" height="500" preserveAspectRatio="xMidYMid meet" version="1.0"><defs><clipPath id="5e8e6153f8"><path d="M 99.011719 99.011719 L 276 99.011719 L 276 275 L 99.011719 275 Z M 99.011719 99.011719 " clip-rule="nonzero"/></clipPath></defs><rect x="-37.5" width="450" fill="#ffffff" y="-37.499999" height="449.999989" fill-opacity="1"/><path stroke-linecap="butt" transform="matrix(0.75, 0, 0, 0.75, 0.0000045, 0)" fill="none" stroke-linejoin="miter" d="M -0.000006 0 L 500.000059 0 L 500.000059 500.000065 L -0.000006 500.000065 Z M -0.000006 0 " stroke="#b40e0e" stroke-width="36" stroke-opacity="1" stroke-miterlimit="4"/><g clip-path="url(#5e8e6153f8)"><path fill="#b40e0e" d="M 187.28125 98.8125 C 186.320312 98.828125 185.371094 98.933594 184.433594 99.136719 C 183.496094 99.335938 182.585938 99.628906 181.703125 100.007812 C 180.824219 100.386719 179.988281 100.851562 179.195312 101.394531 C 178.40625 101.9375 177.675781 102.554688 177.007812 103.242188 C 176.339844 103.933594 175.742188 104.679688 175.222656 105.484375 C 174.699219 106.289062 174.261719 107.136719 173.90625 108.03125 C 173.550781 108.921875 173.285156 109.839844 173.113281 110.785156 C 172.9375 111.726562 172.859375 112.679688 172.871094 113.640625 L 172.871094 172.140625 L 114.371094 172.140625 C 113.402344 172.125 112.441406 172.207031 111.488281 172.386719 C 110.535156 172.5625 109.609375 172.832031 108.710938 173.191406 C 107.808594 173.554688 106.957031 174 106.144531 174.53125 C 105.335938 175.0625 104.585938 175.667969 103.894531 176.347656 C 103.203125 177.03125 102.585938 177.769531 102.046875 178.574219 C 101.503906 179.378906 101.042969 180.226562 100.667969 181.121094 C 100.296875 182.011719 100.011719 182.9375 99.824219 183.886719 C 99.632812 184.835938 99.535156 185.796875 99.535156 186.765625 C 99.535156 187.734375 99.632812 188.695312 99.824219 189.644531 C 100.011719 190.59375 100.296875 191.515625 100.667969 192.410156 C 101.042969 193.304688 101.503906 194.152344 102.046875 194.957031 C 102.585938 195.757812 103.203125 196.5 103.894531 197.179688 C 104.585938 197.859375 105.335938 198.464844 106.144531 198.996094 C 106.957031 199.527344 107.808594 199.976562 108.710938 200.335938 C 109.609375 200.699219 110.535156 200.96875 111.488281 201.144531 C 112.441406 201.320312 113.402344 201.402344 114.371094 201.390625 L 172.871094 201.390625 L 172.871094 259.890625 C 172.855469 260.859375 172.9375 261.820312 173.117188 262.773438 C 173.292969 263.726562 173.5625 264.652344 173.925781 265.550781 C 174.285156 266.449219 174.730469 267.304688 175.261719 268.117188 C 175.792969 268.925781 176.398438 269.675781 177.082031 270.367188 C 177.761719 271.058594 178.503906 271.671875 179.304688 272.214844 C 180.109375 272.757812 180.957031 273.21875 181.851562 273.589844 C 182.746094 273.964844 183.667969 274.246094 184.617188 274.4375 C 185.566406 274.628906 186.527344 274.722656 187.496094 274.722656 C 188.464844 274.722656 189.425781 274.628906 190.375 274.4375 C 191.324219 274.246094 192.246094 273.964844 193.140625 273.589844 C 194.035156 273.21875 194.882812 272.757812 195.6875 272.214844 C 196.488281 271.671875 197.230469 271.058594 197.910156 270.367188 C 198.59375 269.675781 199.199219 268.925781 199.730469 268.117188 C 200.261719 267.304688 200.707031 266.449219 201.066406 265.550781 C 201.429688 264.652344 201.699219 263.726562 201.875 262.773438 C 202.054688 261.820312 202.136719 260.859375 202.121094 259.890625 L 202.121094 201.390625 L 260.621094 201.390625 C 261.589844 201.402344 262.550781 201.320312 263.503906 201.144531 C 264.457031 200.96875 265.382812 200.699219 266.28125 200.335938 C 267.183594 199.976562 268.035156 199.527344 268.847656 198.996094 C 269.65625 198.464844 270.40625 197.859375 271.097656 197.179688 C 271.789062 196.5 272.40625 195.757812 272.945312 194.957031 C 273.488281 194.152344 273.949219 193.304688 274.320312 192.410156 C 274.695312 191.515625 274.976562 190.59375 275.167969 189.644531 C 275.359375 188.695312 275.457031 187.734375 275.457031 186.765625 C 275.457031 185.796875 275.359375 184.835938 275.167969 183.886719 C 274.976562 182.9375 274.695312 182.011719 274.320312 181.121094 C 273.949219 180.226562 273.488281 179.378906 272.945312 178.574219 C 272.40625 177.769531 271.789062 177.03125 271.097656 176.347656 C 270.40625 175.667969 269.65625 175.0625 268.847656 174.53125 C 268.035156 174 267.183594 173.554688 266.28125 173.191406 C 265.382812 172.832031 264.457031 172.5625 263.503906 172.386719 C 262.550781 172.207031 261.589844 172.125 260.621094 172.140625 L 202.121094 172.140625 L 202.121094 113.640625 C 202.128906 113.152344 202.109375 112.664062 202.066406 112.179688 C 202.027344 111.691406 201.960938 111.210938 201.871094 110.730469 C 201.78125 110.25 201.664062 109.777344 201.527344 109.308594 C 201.390625 108.84375 201.230469 108.382812 201.046875 107.929688 C 200.863281 107.480469 200.65625 107.039062 200.429688 106.605469 C 200.199219 106.175781 199.953125 105.757812 199.683594 105.351562 C 199.414062 104.945312 199.125 104.550781 198.8125 104.175781 C 198.503906 103.796875 198.179688 103.4375 197.832031 103.089844 C 197.488281 102.746094 197.128906 102.417969 196.75 102.109375 C 196.371094 101.804688 195.980469 101.515625 195.574219 101.246094 C 195.167969 100.976562 194.746094 100.726562 194.316406 100.5 C 193.882812 100.273438 193.441406 100.066406 192.992188 99.882812 C 192.539062 99.699219 192.078125 99.539062 191.609375 99.402344 C 191.144531 99.265625 190.667969 99.152344 190.191406 99.0625 C 189.710938 98.972656 189.226562 98.90625 188.742188 98.867188 C 188.257812 98.824219 187.769531 98.804688 187.28125 98.8125 Z M 187.28125 98.8125 " fill-opacity="1" fill-rule="nonzero"/></g></svg>